HIERARCHY
ROOT hip
{
  OFFSET 0 0 0
  CHANNELS 6 Xposition Yposition Zposition Zrotation Yrotation Xrotation
  JOINT abdomen
  {
    OFFSET 0 20.6881 -0.73152
    CHANNELS 3 Zrotation Xrotation Yrotation
    JOINT chest
    {
      OFFSET 0 11.7043 -0.48768
      CHANNELS 3 Zrotation Xrotation Yrotation
      JOINT neck
      {
        OFFSET 0 22.1894 -2.19456
        CHANNELS 3 Zrotation Xrotation Yrotation
        JOINT head
        {
          OFFSET -0.24384 7.07133 1.2192
          CHANNELS 3 Zrotation Xrotation Yrotation
          JOINT leftEye
          {
            OFFSET 4.14528 8.04674 8.04672
            CHANNELS 3 Zrotation Xrotation Yrotation
            End Site
            {
              OFFSET 1 0 0
            }
          }
          JOINT rightEye
          {
            OFFSET -3.6576 8.04674 8.04672
            CHANNELS 3 Zrotation Xrotation Yrotation
            End Site
            {
              OFFSET 1 0 0
            }
          }
        }
      }
      JOINT rCollar
      {
        OFFSET -2.68224 19.2634 -4.8768
        CHANNELS 3 Zrotation Xrotation Yrotation
        JOINT rShldr
        {
          OFFSET -8.77824 -1.95073 1.46304
          CHANNELS 3 Zrotation Xrotation Yrotation
          JOINT rForeArm
          {
            OFFSET -28.1742 -1.7115 0.48768
            CHANNELS 3 Zrotation Xrotation Yrotation
            JOINT rHand
            {
              OFFSET -22.5879 0.773209 7.07136
              CHANNELS 3 Zrotation Xrotation Yrotation
              JOINT rThumb1
              {
                OFFSET -1.2192 -0.487915 3.41376
                CHANNELS 3 Zrotation Xrotation Yrotation
                JOINT rThumb2
                {
                  OFFSET -3.37035 -0.52449 3.41376
                  CHANNELS 3 Zrotation Xrotation Yrotation
                  End Site
                  {
                    OFFSET -1.78271 -1.18214 1.43049
                  }
                }
              }
              JOINT rIndex1
              {
                OFFSET -7.75947 0.938293 5.60832
                CHANNELS 3 Zrotation Xrotation Yrotation
                JOINT rIndex2
                {
                  OFFSET -2.54057 -0.884171 1.56538
                  CHANNELS 3 Zrotation Xrotation Yrotation
                  End Site
                  {
                    OFFSET -1.62519 -0.234802 1.16502
                  }
                }
              }
              JOINT rMid1
              {
                OFFSET -8.24714 1.18213 3.41376
                CHANNELS 3 Zrotation Xrotation Yrotation
                JOINT rMid2
                {
                  OFFSET -3.10165 -0.590103 1.0647
                  CHANNELS 3 Zrotation Xrotation Yrotation
                  End Site
                  {
                    OFFSET -2.48547 -0.328903 0.83742
                  }
                }
              }
              JOINT rRing1
              {
                OFFSET -8.82822 0.546677 1.51678
                CHANNELS 3 Zrotation Xrotation Yrotation
                JOINT rRing2
                {
                  OFFSET -2.60934 -0.819778 -0.0198488
                  CHANNELS 3 Zrotation Xrotation Yrotation
                  End Site
                  {
                    OFFSET -2.33842 -0.294052 0.168128
                  }
                }
              }
              JOINT rPinky1
              {
                OFFSET -8.27202 -0.0477905 -0.4584
                CHANNELS 3 Zrotation Xrotation Yrotation
                JOINT rPinky2
                {
                  OFFSET -1.82734 -0.647385 -0.700984
                  CHANNELS 3 Zrotation Xrotation Yrotation
                  End Site
                  {
                    OFFSET -1.69225 -0.51767 -0.607171
                  }
                }
              }
            }
          }
        }
      }
      JOINT lCollar
      {
        OFFSET 2.68224 19.2634 -4.8768
        CHANNELS 3 Zrotation Xrotation Yrotation
        JOINT lShldr
        {
          OFFSET 8.77824 -1.95073 1.46304
          CHANNELS 3 Zrotation Xrotation Yrotation
          JOINT lForeArm
          {
            OFFSET 28.1742 -1.7115 0.48768
            CHANNELS 3 Zrotation Xrotation Yrotation
            JOINT lHand
            {
              OFFSET 22.5879 0.773209 7.07136
              CHANNELS 3 Zrotation Xrotation Yrotation
              JOINT lThumb1
              {
                OFFSET 1.2192 -0.487915 3.41376
                CHANNELS 3 Zrotation Xrotation Yrotation
                JOINT lThumb2
                {
                  OFFSET 3.37035 -0.52449 3.41376
                  CHANNELS 3 Zrotation Xrotation Yrotation
                  End Site
                  {
                    OFFSET 1.78271 -1.18214 1.43049
                  }
                }
              }
              JOINT lIndex1
              {
                OFFSET 7.75947 0.938293 5.60832
                CHANNELS 3 Zrotation Xrotation Yrotation
                JOINT lIndex2
                {
                  OFFSET 2.54057 -0.884171 1.56538
                  CHANNELS 3 Zrotation Xrotation Yrotation
                  End Site
                  {
                    OFFSET 1.62519 -0.234802 1.16502
                  }
                }
              }
              JOINT lMid1
              {
                OFFSET 8.24714 1.18213 3.41376
                CHANNELS 3 Zrotation Xrotation Yrotation
                JOINT lMid2
                {
                  OFFSET 3.10165 -0.590103 1.0647
                  CHANNELS 3 Zrotation Xrotation Yrotation
                  End Site
                  {
                    OFFSET 2.48547 -0.328903 0.83742
                  }
                }
              }
              JOINT lRing1
              {
                OFFSET 8.82822 0.546677 1.51678
                CHANNELS 3 Zrotation Xrotation Yrotation
                JOINT lRing2
                {
                  OFFSET 2.60934 -0.819778 -0.0198488
                  CHANNELS 3 Zrotation Xrotation Yrotation
                  End Site
                  {
                    OFFSET 2.33842 -0.294052 0.168128
                  }
                }
              }
              JOINT lPinky1
              {
                OFFSET 8.27202 -0.0477905 -0.4584
                CHANNELS 3 Zrotation Xrotation Yrotation
                JOINT lPinky2
                {
                  OFFSET 1.82734 -0.647385 -0.700984
                  CHANNELS 3 Zrotation Xrotation Yrotation
                  End Site
                  {
                    OFFSET 1.69225 -0.51767 -0.607171
                  }
                }
              }
            }
          }
        }
      }
    }
  }
  JOINT rButtock
  {
    OFFSET -8.77824 4.35084 1.2192
    CHANNELS 3 Zrotation Xrotation Yrotation
    JOINT rThigh
    {
      OFFSET 0 -1.70687 -2.19456
      CHANNELS 3 Zrotation Xrotation Yrotation
      JOINT rShin
      {
        OFFSET 0 -36.8199 0.73152
        CHANNELS 3 Zrotation Xrotation Yrotation
        JOINT rFoot
        {
          OFFSET 0.73152 -45.1104 -5.12064
          CHANNELS 3 Zrotation Xrotation Yrotation
          End Site
          {
            OFFSET -1.1221 -3.69964 12.103
          }
        }
      }
    }
  }
  JOINT lButtock
  {
    OFFSET 8.77824 4.35084 1.2192
    CHANNELS 3 Zrotation Xrotation Yrotation
    JOINT lThigh
    {
      OFFSET 0 -1.70687 -2.19456
      CHANNELS 3 Zrotation Xrotation Yrotation
      JOINT lShin
      {
        OFFSET 0 -36.8199 0.73152
        CHANNELS 3 Zrotation Xrotation Yrotation
        JOINT lFoot
        {
          OFFSET -0.73152 -45.1104 -5.12064
          CHANNELS 3 Zrotation Xrotation Yrotation
          End Site
          {
            OFFSET 1.1221 -3.69964 12.103
          }
        }
      }
    }
  }
}
MOTION
Frames:	4
Frame Time:	0.03333
1.5556992031633854 11.452917754650116 0.2844635397195816 -2.4824501830877055 0.03552688212227754 1.0553820475301527 -1.1852774112266917 2.948433435909479 0.550394946092169 1.881735045585084 -3.75255160689508 0.4158683939732441 -0.8262249320079937 3.3486182748053452 -0.0637450349458183 2.291671473625025 -2.9654162743938923 -1.3997069313510107 -0.2787286541665546 0.4937943423790369 0.1529853918149356 0.4907391667467785 0.3809168485668344 0.0539287724480406 0.3809014539607754 0.22616671996530996 0.24718910841568362 6.96189058513623 2.7597641876832744 2.5045146823146087 -5.378856787428727 -3.3691007314657444 7.568153543792194 0.03178012315612886 -0.043619722473817055 -2.2470884810348246 -0.7264559319147943 0.4562408417443961 0.19852128917584533 0.8604036255015606 -0.009559850259424546 -0.7493523268382638 0.7248914984297441 -0.5724422097635884 -0.4294300013745689 1.3229915272538968 3.2672843821688335 0.6121498346685749 -0.764530501277913 -0.20738215228304105 0.18316280841427832 0.0955508246721876 0.7994792986003989 -0.011995733173246457 -0.6016757395763602 -0.42478184420096365 1.3343170481148359 2.1934358510004937 0.3326142576846067 -0.4590374306835461 0.24678810160620981 -0.7906961022145856 -0.052508813472191974 1.6421122659854672 -0.9935230519297571 0.15291376821014302 -0.5149411950187782 1.1030381983600357 -0.8397750668259469 -6.2008401719621435 4.570077866108239 -1.322171584388378 4.135934393876127 -3.465943208943005 -7.41428901858567 0.2130800775155655 -3.083822726297941 1.3673219095665126 -0.7689556634472879 -0.45627915483677167 -0.7046277679053443 0.5535189572246565 0.19242140997870827 -1.1540025086257322 0.7047033802338905 0.3549792318741374 -0.29965859493929514 -1.8979996469895886 1.421252229479287 -0.41321881418380807 0.3939455944911924 -0.6003179726745558 0.2506900072521383 -0.8546624779781947 -0.47727179461165875 -0.0975348745641573 -0.5593185882427907 0.7639941179846554 -0.01526344508256865 -1.996594708319192 0.8666105599098097 -0.3992483025667817 0.11293305580027503 0.4727743284866169 1.0034909659714502 -0.8782199605081273 -1.0279637472110175 -0.7314435708344903 -0.37967447450940606 0.6666580526181558 -0.25228557679485025 -3.390726391038474 -6.374412781131916 -2.6999983248983703 -1.9270531372847073 6.22527047796281 0.6453609358166742 -2.0634385680749334 -3.2015929033921204 -2.8605387196883463 0.7515720315968122 0.20543797628839394 0.757309817386446 2.0494883335820053 -4.183405062381362 5.023108092055907 -0.922868266782266 6.881978225620727 -1.6584862571383978 1.9569964731626315 -1.0436044535235236 1.2357976524746315
2.3170516826212406 24.754047393798828 0.6070039933547378 -3.669259157514067 0.10241185641517118 1.7994795042974439 -1.7847026034715328 5.879765358797715 1.271878020043518 2.5912469857163694 -5.678543290094085 0.7080867251114268 -2.3457731885972843 6.730675875126604 -1.3845649355696215 4.2554622774645265 -8.614623902002773 -2.8971419168938564 -0.1598772527906768 0.23254563640242584 0.17682867507295094 0.06199218428921089 0.1632016072453425 -0.052876389707329725 0.27955910912009296 0.30860715660821675 0.2992211693477234 16.438335803780163 8.712058258060297 5.567475449566392 -10.120206769616914 -8.594306650542924 18.17032492822824 -0.8215087931078057 -1.755995425111675 -2.412932090828493 -0.39925539956021616 0.01497326876454889 -0.002189235711547759 0.49794944527193186 -0.1477075098761537 -0.5213669089238793 0.1973015401200427 0.01593792626310741 -0.26957235869732943 3.5534059156991336 4.188420128779444 0.1992517725714929 -0.3386775980377268 -0.029758920770333992 0.07302414041797152 1.2130973053246825 0.8300882577572821 -0.09118034403681247 -0.6397020173676129 -0.13167670904858997 0.9070536040893361 4.705677611700502 0.6388023000270224 -0.32549583986770464 0.025881934642705506 -0.2452231078322042 -0.16974578224386094 2.0806071023274066 -0.6100540338104388 -0.1761052753305246 -0.35496338370082886 0.5767814609598092 -0.7314717453648166 -17.91642118356948 10.764220183815539 -5.723677607016352 8.914540923552618 -8.538880519201916 -18.442014485485718 1.5397417108704334 -4.314826012862047 2.072248444887192 -0.47085616590775403 -0.18120748000137704 -0.2938425287784706 0.03861895678430991 -0.030629743209084175 -0.7040672121457272 0.28476744852734504 0.09088052274463271 0.04482028830300547 -3.4585269041648403 2.7834337813651304 -0.43025247888060003 0.2697262513970663 -0.31840042057839857 0.0023504121677041926 -1.7943997645456584 0.1578500473089317 0.0013418453573232178 -0.3234800536084782 -0.006851213346051696 0.09748851732320848 -4.522429612684584 0.9904839379142187 -0.1853292323612153 0.2834610948073008 0.3633634491628867 0.43735067293425645 -1.3810582737610544 -0.8321321918664085 -0.5507819189973325 -0.057999351749956636 0.30111278490227317 -0.1764060971386961 -8.287864237014777 -13.387638641183138 -7.696411689800339 -3.4040318129850706 18.03338134291678 2.3287421119018576 -3.026476884913337 -4.99605712784807 -4.923726278311282 0.5045165120763404 0.036786011487513516 0.26936174341096975 7.559859132818859 -10.404285436255146 9.20826979371443 -0.023638857830591005 18.63844901846799 -2.4304030743951506 3.0203634387193525 -3.0558287690978205 4.531506934091531
1.7045545391738415 51.36711597442627 0.2195106353610754 -9.710771933594145 3.642963782983164 -2.018613744099432 -3.32893516372125 12.47162318857251 2.5302241546807713 3.403460211528905 -9.492184535812582 0.9845972753450198 -5.13771866632872 13.582262320261712 -3.948572486545745 7.993551385678928 -20.69656943050042 -5.451655078036839 -0.09397022284871144 0.05810602009488519 0.32912685914393336 -0.3039742606385383 -0.058119787194931 -0.17257294695171732 -0.08597799438529738 0.4081297362827668 -0.011090072767665245 31.995655751804136 19.44073840630332 16.36637976087408 -19.682854952001932 -21.051548022044326 43.75752837051123 -2.581933595896234 -6.70133210179176 -3.2684568268285488 0.34445625824067494 -0.3190731408507919 -0.40083285309337174 -0.2552516398027812 -0.14161943676771868 0.14098684385669913 -0.31474941766276227 0.3589158754352977 0.0032663512075734808 7.548319528216123 5.4449307567989615 -0.3133134771114729 0.29138216657338506 0.15268140837623034 0.006333106144909206 2.682429370805805 0.8049330445700954 -0.31314048122640115 -0.6427743751945022 0.37896589574387013 -0.2294024687237506 9.174766008288225 1.078416753784315 0.20267415091291888 0.0454592845163719 0.12676852443884823 -0.34967751097432653 2.2997479588751535 -0.13305101781479056 -0.32352396959040725 -0.27437184724973274 -0.6021177808817071 -0.3715952678557801 -36.383574180295426 24.892083137619746 -22.01839545000548 18.92150571805166 -21.05343315425525 -44.81474944647541 4.7006770594544065 -11.012115923325629 4.402468438970711 0.0016050944549529966 0.466518462176267 0.2455791314426911 -0.46136775249013695 -0.48958251689951915 0.017810251869337157 -0.17105824578156123 -0.262466133835313 0.39784587263110766 -6.530903087187486 4.829189203122312 -0.5125832856512429 0.14756116773710087 0.16507798827639192 -0.5078547670331842 -3.1891105192405105 0.8954383337972006 0.05539396141682073 0.21466484148556716 -0.8464569128249235 -0.1924967688432032 -8.967104351857742 1.2108962768646458 -0.5281191378878186 0.5070383459839561 0.2837528986313337 -0.3789941769959022 -2.2853584578412294 -0.9150488741213649 -0.6182247009659194 0.20306403198456496 -0.36930843514429523 -0.4636576801310895 -22.944415422202884 -30.948963412445533 -21.806242944195713 -11.610939952201802 46.44388616730686 10.662942992576236 -3.877068089898528 -7.73933942873387 -7.572497544104322 -0.34446420900775565 -0.33116086813442197 -0.03049369971463927 19.404494007472646 -24.25791202601511 18.703371674076255 6.297608584575592 45.09608493838824 -7.674286999531375 4.8386686519166435 -8.421214289049168 12.140213018533382
-0.39506154134869576 70.98714113235474 -0.5336567293852568 -25.958765733131685 13.583104141076916 -17.68723247842241 -4.040951648843814 18.728583609850062 2.468684790589191 3.6419806626295053 -12.720916555541514 1.1608535085283722 -6.4456064041718975 18.45864770366199 -5.528813590656358 11.187365770823462 -30.2436814938446 -7.280501834444399 -0.025390961435257948 -0.25373608485897886 0.935875508282909 -0.4168487929234054 -0.3655569537426657 0.003863752636111588 -0.6369657261922295 -0.04816265204552179 -0.3797064109798612 37.855623380405746 25.111333917524448 34.31271888055551 -27.22240024845553 -33.62300637816762 70.0189602763337 -5.004552175628274 -12.612255929809427 -4.869634595179366 0.5149738518607473 -0.08685876862311169 -0.5111560962798275 -0.6241099227920903 0.4109218962711268 0.7749309583931384 -0.7968423119722451 0.3035691450433919 0.2378930608727376 9.664630590656126 5.794520755974547 -0.05221647603963014 0.8614587830066218 0.679261352462416 0.08736796456182143 3.641480351272802 1.274978819204998 -0.1643578168655655 -0.42217436612445836 -0.20506725176293564 -0.9069610763704237 11.295755750309686 1.2411413150048143 0.6679195031804925 0.0359599854847651 -0.14785876121367245 0.1106724366077727 2.6386100787421767 -0.260067029889346 0.25928988242784545 -0.9743760039738015 -1.0092397440967795 0.35568338168888336 -38.80627984493938 37.5617647366497 -49.99244606378986 27.943389894600195 -34.15397503896065 -71.50919827020375 7.596127437311627 -22.16020213000599 8.181117771797586 -0.00994507559665591 0.9197903060658232 0.2988218434051157 -0.16892135706669925 -0.6170351274724265 0.28347131341062937 -0.2541705489232151 -0.4247514285148159 0.4335047961838633 -8.672977623176775 6.447684062340051 -0.14344888692865074 0.517714945512891 0.34211457057241834 -0.754412643239597 -3.6563227792260626 1.5409782952753233 -0.08707161839518618 0.6552713802198041 -0.46168631678189453 -0.5856920830623256 -11.563489774264077 1.4721544277122187 -0.7205534745331397 0.36759283036300555 0.35118543531616553 0.07769169426160254 -2.887649661494831 -1.1445065179670046 -0.22391259745664707 -0.2843693232039274 -0.5000143501962442 -0.26424798611546646 -41.68146505152918 -50.4621684182954 -39.35064250669482 -26.809248935750627 74.54424746941228 26.548023228301613 -3.3405571574808497 -8.506159644209324 -7.421581953071951 -0.7806744537940316 -0.24805171328308862 -0.0858289041623207 27.044974131933397 -37.149357914564334 25.501016700241188 16.617638514776754 69.46365906662248 -16.65718701761842 6.579011951493294 -14.309726985739553 19.212639116328866
